<svg width="23975" height="12735" viewBox="0 0 23975 12735" fill="none" xmlns="http://www.w3.org/2000/svg">
<path d="M739.689 11934.5V4994.4H1702.19L1783.24 5521.24H1823.77C2033.15 5345.62 2266.18 5193.65 2522.85 5065.32C2786.27 4936.98 3053.07 4872.82 3323.24 4872.82C3944.64 4872.82 4424.21 5102.47 4761.93 5561.76C5106.4 6021.06 5278.64 6635.71 5278.64 7405.71C5278.64 7973.08 5177.32 8459.4 4974.69 8864.66C4772.06 9263.17 4508.64 9567.11 4184.43 9776.5C3866.97 9985.89 3522.5 10090.6 3151 10090.6C2934.86 10090.6 2718.72 10043.3 2502.58 9948.74C2286.44 9847.42 2077.06 9712.33 1874.43 9543.47L1904.82 10374.3V11934.5H739.689ZM2907.85 9128.08C3238.81 9128.08 3515.74 8982.86 3738.64 8692.42C3961.53 8401.98 4072.98 7976.46 4072.98 7415.84C4072.98 6916.02 3988.55 6527.64 3819.69 6250.71C3650.83 5973.78 3377.28 5835.32 2999.03 5835.32C2647.8 5835.32 2283.07 6021.06 1904.82 6392.55V8712.68C2087.19 8861.28 2262.8 8969.35 2431.66 9036.89C2600.52 9097.68 2759.25 9128.08 2907.85 9128.08ZM6985.33 10090.6C6573.31 10090.6 6279.5 9965.62 6103.88 9715.71C5935.02 9465.8 5850.59 9124.7 5850.59 8692.42V2816.11H7015.73V8753.21C7015.73 8895.05 7042.74 8996.37 7096.78 9057.16C7150.81 9111.19 7208.23 9138.21 7269.02 9138.21C7296.03 9138.21 7319.67 9138.21 7339.94 9138.21C7366.95 9131.46 7404.1 9124.7 7451.38 9117.95L7603.36 9989.26C7535.81 10016.3 7448.01 10039.9 7339.94 10060.2C7238.62 10080.4 7120.42 10090.6 6985.33 10090.6ZM9472.47 10090.6C8938.88 10090.6 8550.5 9918.34 8307.34 9573.87C8064.19 9229.39 7942.61 8743.08 7942.61 8114.92V4994.4H9107.74V7962.95C9107.74 8374.97 9168.53 8665.4 9290.11 8834.26C9411.69 9003.12 9607.56 9087.55 9877.74 9087.55C10093.9 9087.55 10283 9033.52 10445.1 8925.45C10614 8817.38 10793 8641.76 10982.1 8398.61V4994.4H12147.2V9969H11194.8L11103.7 9239.53H11073.3C10857.1 9496.19 10620.7 9702.2 10364.1 9857.55C10107.4 10012.9 9810.19 10090.6 9472.47 10090.6ZM14747.6 12167.6C14355.9 12167.6 14001.3 12120.3 13683.8 12025.7C13373.1 11931.1 13126.6 11785.9 12944.2 11590.1C12768.6 11400.9 12680.8 11161.1 12680.8 10870.7C12680.8 10458.7 12917.2 10104.1 13390 9806.89V9766.37C13261.7 9685.32 13153.6 9577.25 13065.8 9442.16C12984.7 9307.07 12944.2 9138.21 12944.2 8935.58C12944.2 8739.7 12998.2 8564.09 13106.3 8408.74C13221.1 8246.63 13349.5 8114.92 13491.3 8013.61V7973.08C13322.4 7844.75 13170.5 7665.75 13035.4 7436.11C12907.1 7206.46 12842.9 6946.41 12842.9 6655.97C12842.9 6270.97 12934.1 5946.76 13116.4 5683.34C13298.8 5419.92 13538.6 5220.67 13835.8 5085.58C14139.7 4943.74 14463.9 4872.82 14808.4 4872.82C14943.5 4872.82 15071.8 4886.33 15193.4 4913.34C15321.7 4933.61 15436.6 4960.62 15537.9 4994.4H17321V5855.58H16409.2C16490.3 5950.14 16557.8 6071.72 16611.8 6220.32C16665.9 6362.16 16692.9 6520.89 16692.9 6696.5C16692.9 7061.24 16608.5 7371.94 16439.6 7628.61C16270.7 7878.52 16044.5 8067.64 15760.8 8195.97C15477.1 8324.31 15159.6 8388.47 14808.4 8388.47C14700.3 8388.47 14588.9 8378.34 14474.1 8358.08C14359.2 8337.82 14244.4 8304.04 14129.6 8256.76C14055.3 8324.31 13994.5 8391.85 13947.2 8459.4C13906.7 8526.94 13886.4 8618.12 13886.4 8732.95C13886.4 8874.79 13943.9 8986.24 14058.7 9067.29C14180.3 9148.34 14393 9188.87 14697 9188.87H15578.4C16179.6 9188.87 16632.1 9286.81 16936 9482.68C17246.7 9671.81 17402.1 9982.51 17402.1 10414.8C17402.1 10739 17294 11032.8 17077.9 11296.2C16861.7 11566.4 16554.4 11779.2 16155.9 11934.5C15757.4 12089.9 15288 12167.6 14747.6 12167.6ZM14808.4 7659C15044.8 7659 15247.4 7571.19 15416.3 7395.58C15585.2 7219.97 15669.6 6973.43 15669.6 6655.97C15669.6 6345.27 15585.2 6105.49 15416.3 5936.63C15254.2 5761.02 15051.6 5673.21 14808.4 5673.21C14565.3 5673.21 14359.2 5757.64 14190.4 5926.5C14021.5 6095.36 13937.1 6338.52 13937.1 6655.97C13937.1 6973.43 14021.5 7219.97 14190.4 7395.58C14359.2 7571.19 14565.3 7659 14808.4 7659ZM14930 11407.7C15328.5 11407.7 15652.7 11326.6 15902.6 11164.5C16152.5 11002.4 16277.5 10816.7 16277.5 10607.3C16277.5 10411.4 16199.8 10279.7 16044.5 10212.2C15895.9 10144.6 15679.7 10110.8 15396 10110.8H14717.2C14447.1 10110.8 14220.8 10087.2 14038.4 10039.9C13781.7 10235.8 13653.4 10455.3 13653.4 10698.5C13653.4 10921.4 13768.2 11093.6 13997.9 11215.2C14227.5 11343.5 14538.2 11407.7 14930 11407.7ZM17670.9 9969V4994.4H18836V9969H17670.9ZM18258.5 4123.08C18049.1 4123.08 17880.3 4062.29 17752 3940.71C17623.6 3819.13 17559.5 3657.03 17559.5 3454.4C17559.5 3258.52 17623.6 3099.79 17752 2978.21C17880.3 2856.63 18049.1 2795.84 18258.5 2795.84C18467.9 2795.84 18636.8 2856.63 18765.1 2978.21C18893.4 3099.79 18957.6 3258.52 18957.6 3454.4C18957.6 3657.03 18893.4 3819.13 18765.1 3940.71C18636.8 4062.29 18467.9 4123.08 18258.5 4123.08Z" fill="#3C2EBB"/>
<path d="M22029.7 5875.41L22445.1 4872.36V4872.39C22978.7 4872.39 23367.1 5044.63 23610.2 5389.1C23853.4 5733.57 23975 6219.89 23975 6848.04V9968.57H22809.8V7000.02C22809.8 6588 22749 6297.56 22627.5 6128.7C22505.9 5959.84 22306.6 5875.41 22029.7 5875.41Z" fill="#D5D6D7"/>
<path d="M19743.1 9969V4994.4H20705.6L20786.6 5875.84H20827.1C21002.8 5551.63 21215.5 5305.1 21465.4 5136.24C21715.3 4960.62 21972 4872.82 22235.4 4872.82C22471.8 4872.82 22661 4906.59 22802.8 4974.13L22600.2 5987.29C22512.4 5960.27 22431.3 5940.01 22357 5926.5C22282.7 5912.99 22191.5 5906.24 22083.5 5906.24C21887.6 5906.24 21681.6 5983.91 21465.4 6139.26C21249.3 6287.86 21063.5 6551.28 20908.2 6929.53V9969H19743.1Z" fill="#3C2EBB"/>
</svg>
